<svg width="29" height="29" viewBox="0 0 29 29" fill="none" xmlns="http://www.w3.org/2000/svg">
<path d="M14.4395 14.5H14.5603" stroke="#FFC947" stroke-width="3" stroke-linecap="round" stroke-linejoin="round"/>
<path d="M19.3336 14.5C19.3336 20.5417 17.1706 25.375 14.5002 25.375C11.8298 25.375 9.66689 20.5417 9.66689 14.5C9.66689 8.45833 11.8298 3.625 14.5002 3.625C17.1706 3.625 19.3336 8.45833 19.3336 14.5ZM5.13564 20.2396C6.4648 22.6563 11.7331 22.1004 16.9048 18.9225C22.0765 15.7446 25.1819 11.2013 23.8648 8.76042C22.5477 6.31958 17.2673 6.89958 12.0836 10.0775C6.8998 13.2554 3.81855 17.7988 5.13564 20.2396ZM23.8648 20.2396C25.1819 17.8229 22.0765 13.2554 16.9048 10.0775C11.7331 6.89958 6.4648 6.3075 5.13564 8.76042C3.80647 11.2133 6.92397 15.7083 12.0836 18.9225C17.2431 22.1367 22.5356 22.6925 23.8648 20.2396Z" stroke="#142C52" stroke-width="2" stroke-linecap="round" stroke-linejoin="round"/>
</svg>
