<svg width="29" height="29" viewBox="0 0 29 29" fill="none" xmlns="http://www.w3.org/2000/svg">
<path d="M25.979 10.15C25.703 9.99145 25.3756 9.9482 25.0679 10.0297C24.7602 10.1111 24.497 10.3107 24.3356 10.585L24.1665 10.8025C23.7318 8.52184 22.5416 6.45407 20.7879 4.93268C19.0341 3.41128 16.819 2.52496 14.4998 2.41666C14.1793 2.39744 13.8644 2.5063 13.6242 2.71931C13.3839 2.93232 13.2382 3.23203 13.219 3.5525C13.1997 3.87297 13.3086 4.18795 13.5216 4.42815C13.7346 4.66836 14.0343 4.8141 14.3548 4.83333C18.3786 5.06291 21.1819 7.83 21.9431 12.0833L21.0006 11.4429C20.869 11.3539 20.7211 11.2916 20.5654 11.2598C20.4096 11.228 20.2492 11.2273 20.0932 11.2576C19.9371 11.2879 19.7886 11.3487 19.6561 11.4365C19.5237 11.5242 19.4098 11.6373 19.3211 11.7692C19.1438 12.0326 19.0774 12.3553 19.1362 12.6673C19.195 12.9794 19.3743 13.2558 19.6352 13.4367L22.6923 15.5271C22.8976 15.6599 23.1366 15.7312 23.3811 15.7325H23.6469C23.8088 15.6943 23.961 15.623 24.0941 15.5232C24.2271 15.4234 24.3382 15.2972 24.4202 15.1525L26.3415 11.8537C26.4327 11.7191 26.4958 11.5674 26.5269 11.4077C26.5581 11.2481 26.5567 11.0838 26.5229 10.9247C26.489 10.7656 26.4234 10.615 26.3299 10.4819C26.2365 10.3488 26.1171 10.2359 25.979 10.15Z" fill="#FFC947"/>
<path d="M21.9673 21.17C21.8382 20.6868 21.6106 20.2355 21.2987 19.8446C20.9867 19.4536 20.5973 19.1315 20.1548 18.8983C19.7561 18.6929 19.3694 18.4633 18.9465 18.2338C18.1688 17.7546 17.2389 17.5868 16.3427 17.7638C15.4466 17.9408 14.6503 18.4495 14.1131 19.1883L12.5906 21.3633C11.6412 20.6698 10.7483 19.9022 9.92022 19.0675C9.08558 18.2394 8.3179 17.3465 7.62439 16.3971L9.79939 14.8746C10.5382 14.3374 11.047 13.5411 11.224 12.645C11.4009 11.7489 11.2331 10.819 10.754 10.0413C10.5244 9.66667 10.2948 9.28001 10.0894 8.83292C9.85268 8.3886 9.52601 7.99845 9.1302 7.68734C8.73438 7.37623 8.27811 7.15098 7.79044 7.02593C7.30277 6.90089 6.7944 6.8788 6.29772 6.96106C5.80104 7.04333 5.32695 7.22815 4.90564 7.50376L3.69731 8.25292C3.2117 8.53684 2.83137 8.9707 2.61347 9.4893C2.39558 10.0079 2.35189 10.5832 2.48897 11.1288C2.96318 13.1199 3.78099 15.0131 4.90564 16.7233C5.84626 18.1877 6.94876 19.5415 8.19231 20.7592C9.40657 21.9981 10.7563 23.0965 12.2161 24.0338C13.9326 25.163 15.8345 25.981 17.8348 26.4504C18.0369 26.4976 18.2436 26.5219 18.4511 26.5229C18.9105 26.5098 19.3587 26.3784 19.7525 26.1413C20.1462 25.9042 20.4721 25.5695 20.6986 25.1696L21.4477 24.0217C21.7258 23.6077 21.9155 23.1407 22.0049 22.65C22.0944 22.1594 22.0815 21.6555 21.9673 21.17Z" fill="#142C52"/>
</svg>
