<svg width="29" height="29" viewBox="0 0 29 29" fill="none" xmlns="http://www.w3.org/2000/svg">
<path d="M20.5417 15.7083C20.2212 15.7083 19.9139 15.581 19.6873 15.3544C19.4607 15.1278 19.3334 14.8204 19.3334 14.5C19.3334 13.2181 18.8242 11.9887 17.9177 11.0823C17.0113 10.1759 15.7819 9.66663 14.5 9.66663C14.1796 9.66663 13.8722 9.53933 13.6456 9.31272C13.419 9.08611 13.2917 8.77877 13.2917 8.4583C13.2917 8.13783 13.419 7.83049 13.6456 7.60388C13.8722 7.37727 14.1796 7.24997 14.5 7.24997C16.4229 7.24997 18.2669 8.0138 19.6266 9.37344C20.9862 10.7331 21.75 12.5771 21.75 14.5C21.75 14.8204 21.6227 15.1278 21.3961 15.3544C21.1695 15.581 20.8622 15.7083 20.5417 15.7083ZM26.4988 15.8533C26.5574 15.4046 26.5857 14.9525 26.5834 14.5C26.5834 12.9132 26.2708 11.3419 25.6636 9.87587C25.0563 8.40986 24.1663 7.0778 23.0443 5.95576C21.9222 4.83372 20.5902 3.94367 19.1241 3.33642C17.6581 2.72918 16.0869 2.41663 14.5 2.41663C14.0475 2.41434 13.5954 2.4426 13.1467 2.50122C12.8262 2.53967 12.5342 2.70386 12.3348 2.95766C12.1353 3.21146 12.0449 3.53408 12.0834 3.85455C12.1218 4.17502 12.286 4.46709 12.5398 4.6665C12.7936 4.86591 13.1162 4.95634 13.4367 4.91788C13.7895 4.87127 14.1444 4.84304 14.5 4.8333C17.0638 4.8333 19.5226 5.85175 21.3354 7.6646C23.1483 9.47745 24.1667 11.9362 24.1667 14.5C24.165 14.8552 24.1448 15.2101 24.1063 15.5633C24.086 15.7213 24.0971 15.8817 24.139 16.0353C24.181 16.1889 24.2528 16.3328 24.3505 16.4586C24.4482 16.5843 24.5698 16.6895 24.7083 16.7682C24.8468 16.8468 24.9995 16.8972 25.1575 16.9166H25.3025C25.5973 16.9158 25.8816 16.8073 26.102 16.6114C26.3223 16.4156 26.4634 16.146 26.4988 15.8533Z" fill="#FFC947"/>
<path d="M21.9673 21.1821C21.8397 20.6967 21.6128 20.2431 21.3008 19.85C20.9888 19.4569 20.5986 19.1328 20.1548 18.8984C19.7561 18.6929 19.3573 18.4634 18.9465 18.2338C18.1688 17.7547 17.2389 17.5868 16.3427 17.7638C15.4466 17.9408 14.6503 18.4495 14.1131 19.1884L12.5906 21.3634C11.6412 20.6698 10.7483 19.9022 9.92022 19.0675C9.08558 18.2394 8.3179 17.3465 7.62439 16.3971L9.79939 14.8746C10.5382 14.3374 11.047 13.5412 11.224 12.645C11.4009 11.7489 11.2331 10.819 10.754 10.0413C10.5244 9.67877 10.2948 9.28002 10.0894 8.83294C9.85268 8.38861 9.52601 7.99846 9.1302 7.68735C8.73438 7.37624 8.27811 7.15099 7.79044 7.02595C7.30277 6.9009 6.7944 6.87881 6.29772 6.96108C5.80104 7.04335 5.32695 7.22817 4.90564 7.50377L3.69731 8.25294C3.2117 8.53686 2.83137 8.97072 2.61347 9.48931C2.39558 10.0079 2.35189 10.5832 2.48897 11.1288C2.96105 13.1206 3.77901 15.0142 4.90564 16.7234C5.84289 18.1831 6.94132 19.5328 8.18022 20.7471C9.39449 21.986 10.7442 23.0844 12.204 24.0217C13.9131 25.1483 15.8067 25.9663 17.7986 26.4384C18.0006 26.4855 18.2073 26.5099 18.4148 26.5109C18.8742 26.4977 19.3225 26.3663 19.7162 26.1292C20.1099 25.8921 20.4358 25.5574 20.6623 25.1575L21.4115 24.0096C21.6925 23.6013 21.8868 23.1398 21.9824 22.6535C22.078 22.1671 22.0729 21.6664 21.9673 21.1821Z" fill="#142C52"/>
</svg>
