<svg width="29" height="29" viewBox="0 0 29 29" fill="none" xmlns="http://www.w3.org/2000/svg">
<path d="M20.5417 15.7083C20.2212 15.7083 19.9139 15.581 19.6873 15.3544C19.4607 15.1278 19.3334 14.8205 19.3334 14.5C19.3334 13.2181 18.8242 11.9887 17.9177 11.0823C17.0113 10.1759 15.7819 9.66666 14.5 9.66666C14.1796 9.66666 13.8722 9.53936 13.6456 9.31275C13.419 9.08614 13.2917 8.7788 13.2917 8.45833C13.2917 8.13786 13.419 7.83052 13.6456 7.60391C13.8722 7.3773 14.1796 7.25 14.5 7.25C16.4229 7.25 18.2669 8.01383 19.6266 9.37347C20.9862 10.7331 21.75 12.5772 21.75 14.5C21.75 14.8205 21.6227 15.1278 21.3961 15.3544C21.1695 15.581 20.8622 15.7083 20.5417 15.7083ZM26.4988 15.8533C26.5574 15.4046 26.5857 14.9525 26.5834 14.5C26.5834 12.9132 26.2708 11.3419 25.6636 9.8759C25.0563 8.40989 24.1663 7.07783 23.0443 5.95579C21.9222 4.83375 20.5902 3.9437 19.1241 3.33645C17.6581 2.72921 16.0869 2.41666 14.5 2.41666C14.0475 2.41437 13.5954 2.44263 13.1467 2.50125C12.8262 2.5397 12.5342 2.70389 12.3348 2.95769C12.1353 3.21149 12.0449 3.53411 12.0834 3.85458C12.1218 4.17505 12.286 4.46712 12.5398 4.66653C12.7936 4.86595 13.1162 4.95637 13.4367 4.91791C13.7895 4.8713 14.1444 4.84307 14.5 4.83333C17.0638 4.83333 19.5226 5.85178 21.3354 7.66463C23.1483 9.47748 24.1667 11.9362 24.1667 14.5C24.165 14.8552 24.1448 15.2102 24.1063 15.5633C24.086 15.7213 24.0971 15.8817 24.139 16.0353C24.181 16.189 24.2528 16.3328 24.3505 16.4586C24.4482 16.5844 24.5698 16.6896 24.7083 16.7682C24.8468 16.8468 24.9995 16.8973 25.1575 16.9167H25.3025C25.5973 16.9158 25.8816 16.8073 26.102 16.6115C26.3223 16.4156 26.4634 16.146 26.4988 15.8533Z" fill="#FFC947"/>
<path d="M21.9673 21.1821C21.8397 20.6967 21.6128 20.2431 21.3008 19.8499C20.9888 19.4568 20.5986 19.1328 20.1548 18.8983C19.7561 18.6929 19.3573 18.4633 18.9465 18.2337C18.1688 17.7546 17.2389 17.5868 16.3427 17.7638C15.4466 17.9407 14.6503 18.4495 14.1131 19.1883L12.5906 21.3633C11.6412 20.6698 10.7483 19.9021 9.92022 19.0675C9.08558 18.2394 8.3179 17.3465 7.62439 16.3971L9.79939 14.8746C10.5382 14.3374 11.047 13.5411 11.224 12.645C11.4009 11.7489 11.2331 10.819 10.754 10.0412C10.5244 9.67875 10.2948 9.28 10.0894 8.83291C9.85268 8.38859 9.52601 7.99844 9.1302 7.68733C8.73438 7.37622 8.27811 7.15097 7.79044 7.02592C7.30277 6.90088 6.7944 6.87879 6.29772 6.96106C5.80104 7.04332 5.32695 7.22815 4.90564 7.50375L3.69731 8.25291C3.2117 8.53683 2.83137 8.9707 2.61347 9.48929C2.39558 10.0079 2.35189 10.5832 2.48897 11.1287C2.96105 13.1206 3.77901 15.0142 4.90564 16.7233C5.84289 18.1831 6.94132 19.5328 8.18022 20.7471C9.39449 21.986 10.7442 23.0844 12.204 24.0217C13.9131 25.1483 15.8067 25.9662 17.7986 26.4383C18.0006 26.4855 18.2073 26.5098 18.4148 26.5108C18.8742 26.4977 19.3225 26.3663 19.7162 26.1292C20.1099 25.8921 20.4358 25.5574 20.6623 25.1575L21.4115 24.0096C21.6925 23.6013 21.8868 23.1398 21.9824 22.6534C22.078 22.1671 22.0729 21.6663 21.9673 21.1821Z" fill="#142C52"/>
</svg>
