<svg width="24" height="24" viewBox="0 0 24 24" fill="none" xmlns="http://www.w3.org/2000/svg">
<path d="M20 2H8C6.89543 2 6 2.89543 6 4V20C6 21.1046 6.89543 22 8 22H20C21.1046 22 22 21.1046 22 20V4C22 2.89543 21.1046 2 20 2Z" fill="#03256C"/>
<path d="M18 2H10V4C10 4.53043 10.2107 5.03914 10.5858 5.41421C10.9609 5.78929 11.4696 6 12 6H16C16.5304 6 17.0391 5.78929 17.4142 5.41421C17.7893 5.03914 18 4.53043 18 4V2ZM5.09001 8.29L11.71 14.9C11.8927 15.0916 11.9963 15.3452 12 15.61V17C12 17.2652 11.8947 17.5196 11.7071 17.7071C11.5196 17.8946 11.2652 18 11 18H9.61001C9.4784 18.0008 9.34794 17.9755 9.2261 17.9258C9.10426 17.876 8.99345 17.8027 8.90001 17.71L2.29001 11.09C2.10678 10.9031 2.00415 10.6518 2.00415 10.39C2.00415 10.1282 2.10678 9.87693 2.29001 9.69L3.69001 8.29C3.87694 8.10677 4.12825 8.00414 4.39001 8.00414C4.65176 8.00414 4.90308 8.10677 5.09001 8.29Z" fill="#FFC947"/>
</svg>
