<svg width="18" height="2" viewBox="0 0 18 2" fill="none" xmlns="http://www.w3.org/2000/svg">
<path d="M16.173 2.00007L13.1526 1.71516C11.8495 1.77113 10.4317 1.79933 9 1.79777C7.52389 1.7995 6.06304 1.76945 4.7286 1.7099C3.69421 1.66229 2.76537 1.59655 1.9917 1.51617C1.17044 1.43313 0.524967 1.33605 0.09 1.23016L0 1.2035L0.0945 1.17668C0.745029 1.02016 1.83983 0.88355 3.2589 0.781833L0.9 0.559324L2.1717 0.439453L17.4438 1.88003L16.1748 2.00007H16.173ZM4.5324 0.902043C3.38213 0.978102 2.47379 1.08233 1.9053 1.2035C3.12428 1.46879 5.93628 1.63703 9 1.62798C9.94485 1.62871 10.8842 1.61435 11.7783 1.58553L10.1583 1.43272C9.7977 1.44939 9.40159 1.4581 9 1.45819C7.51271 1.45731 6.30933 1.3438 6.3 1.2035C6.30043 1.16554 6.39278 1.12808 6.57 1.09399L4.5324 0.902043ZM16.0668 1.50997L14.814 1.39188C15.3411 1.33568 15.773 1.27214 16.0947 1.2035C14.8773 0.938088 12.0643 0.769784 9 0.779031C8.7777 0.779031 8.5545 0.779795 8.3385 0.781238L6.75 0.63123C7.48947 0.616308 8.24381 0.608937 9 0.609242C10.4761 0.607514 11.9369 0.637565 13.2714 0.697108C14.3058 0.744711 15.2346 0.810459 16.0083 0.890837C16.8292 0.973776 17.4746 1.07074 17.91 1.17651L18 1.2035L17.9055 1.23033C17.4841 1.33374 16.8607 1.42877 16.0677 1.51048L16.0668 1.50997Z" fill="#142C52"/>
</svg>
