<svg width="29" height="29" viewBox="0 0 29 29" fill="none" xmlns="http://www.w3.org/2000/svg">
<path d="M10.875 10.875H18.125M18.125 20.5417H10.875H18.125ZM10.875 15.7083H18.125H10.875Z" stroke="#FFC947" stroke-width="2" stroke-linecap="round" stroke-linejoin="round"/>
<path d="M22.9582 6.04167V24.1667C22.9582 24.4871 22.8309 24.7945 22.6043 25.0211C22.3777 25.2477 22.0703 25.375 21.7498 25.375H7.24984C6.92937 25.375 6.62202 25.2477 6.39542 25.0211C6.16881 24.7945 6.0415 24.4871 6.0415 24.1667V4.83333C6.0415 4.51286 6.16881 4.20552 6.39542 3.97891C6.62202 3.75231 6.92937 3.625 7.24984 3.625H20.5415L22.9582 6.04167ZM20.5415 3.625V6.04167H22.9582L20.5415 3.625Z" stroke="#142C52" stroke-width="2" stroke-linecap="round" stroke-linejoin="round"/>
</svg>
