<svg width="75" height="76" viewBox="0 0 75 76" fill="none" xmlns="http://www.w3.org/2000/svg">
<circle cx="37.5" cy="38.3091" r="37.5" fill="#EBFF10"/>
<path fill-rule="evenodd" clip-rule="evenodd" d="M42.5951 19.748C43.6701 19.748 44.6999 20.1535 45.4523 20.8731L52.8572 27.9549C53.5897 28.6554 54 29.5971 54 30.5779V51.1445C54 54.5045 51.1519 57.2284 47.6386 57.2284H28.3614C24.8481 57.2284 22 54.5045 22 51.1445V25.8319C22 22.4719 24.8481 19.748 28.3614 19.748H42.5951ZM42.5193 23.804H28.3614C27.1903 23.804 26.241 24.7119 26.241 25.8319V51.1445C26.241 52.2645 27.1903 53.1725 28.3614 53.1725H47.6386C48.8097 53.1725 49.759 52.2645 49.759 51.1445V30.7278H45.5193C43.8624 30.7278 42.5193 29.4693 42.5193 27.9168V23.804ZM44.5181 46.047C45.6892 46.047 46.6386 46.9549 46.6386 48.0749C46.6386 49.1949 45.6892 50.1029 44.5181 50.1029H31.4819C30.3108 50.1029 29.3614 49.1949 29.3614 48.0749C29.3614 46.9549 30.3108 46.047 31.4819 46.047H44.5181ZM44.5181 39.9631C45.6892 39.9631 46.6386 40.871 46.6386 41.991C46.6386 43.111 45.6892 44.019 44.5181 44.019H31.4819C30.3108 44.019 29.3614 43.111 29.3614 41.991C29.3614 40.871 30.3108 39.9631 31.4819 39.9631H44.5181ZM44.5181 33.8792C45.6892 33.8792 46.6386 34.7872 46.6386 35.9072C46.6386 37.0272 45.6892 37.9351 44.5181 37.9351H31.4819C30.3108 37.9351 29.3614 37.0272 29.3614 35.9072C29.3614 34.7872 30.3108 33.8792 31.4819 33.8792H44.5181Z" fill="#333333"/>
</svg>
