<svg width="75" height="75" viewBox="0 0 75 75" fill="none" xmlns="http://www.w3.org/2000/svg">
<circle cx="37.5" cy="37.5" r="37.5" fill="#EBFF10"/>
<path d="M25.5 55C21.3579 55 18 51.6421 18 47.5V28.5C18 24.3579 21.3579 21 25.5 21H50.5C54.6421 21 58 24.3579 58 28.5V47.5C58 51.6421 54.6421 55 50.5 55H25.5ZM30 44H21V47.5C21 49.9143 22.9012 51.8845 25.2882 51.9951L25.5 52H30V44ZM43 44H33V52H43V44ZM55 44H46V52H50.5C52.9143 52 54.8845 50.0988 54.9951 47.7118L55 47.5V44ZM30 34H21V41H30V34ZM33 34V41H43V34H33ZM50.5 24H25.5C23.0147 24 21 26.0147 21 28.5V31H55V28.5L54.9948 28.2818C54.9757 27.8828 54.9047 27.4974 54.7884 27.1323L54.6927 26.8624L54.6169 26.6802L54.5345 26.5045L54.4387 26.3219L54.3255 26.1292L54.2116 25.9549L54.0497 25.7339L53.9076 25.5608L53.7891 25.4289L53.5582 25.1989L53.4282 25.0829L53.2055 24.9038L53.0279 24.7766L52.8494 24.6613L52.672 24.5579L52.4972 24.4664L52.331 24.3881L52.2284 24.3439L52.0539 24.2755L51.753 24.1768L51.586 24.1319L51.374 24.0848L51.1583 24.0478C51.0117 24.0263 50.8627 24.0119 50.7118 24.0049L50.5 24ZM46 41H55V34H46V41Z" fill="#333333"/>
</svg>
