<svg width="75" height="75" viewBox="0 0 75 75" fill="none" xmlns="http://www.w3.org/2000/svg">
<circle cx="37.5" cy="37.5" r="37.5" fill="#EBFF10"/>
<path fill-rule="evenodd" clip-rule="evenodd" d="M32.6718 16.9079C34.6152 15.612 37.126 15.5657 39.11 16.7691L39.3282 16.9079L52.4376 25.6493C54.5837 27.0803 55.9034 29.4545 55.9949 32.0211L56 32.3071V44.0984C56 48.4342 52.5522 51.9645 48.2492 52.0962L48 52.1H24C19.6651 52.1 16.1355 48.6515 16.0038 44.3476L16 44.0984V32.3071C16 29.7272 17.243 27.312 19.3274 25.8121L19.5624 25.6493L32.6718 16.9079ZM47.6385 32.9492C48.2402 33.809 48.0717 34.9777 47.2775 35.6356L47.1469 35.7351L39.4408 41.1305C37.4461 42.5271 34.814 42.5752 32.7753 41.275L32.5592 41.1305L24.8531 35.7351C23.9482 35.1016 23.7281 33.8542 24.3615 32.9492C24.9633 32.0893 26.1189 31.8477 27.0087 32.3689L27.1469 32.4575L34.8531 37.8529C35.4958 38.3029 36.3371 38.3329 37.0063 37.9429L37.1469 37.8529L44.8531 32.4575C45.758 31.824 47.005 32.0441 47.6385 32.9492Z" fill="#333333"/>
</svg>
