<svg width="35" height="35" viewBox="0 0 35 35" fill="none" xmlns="http://www.w3.org/2000/svg">
<circle cx="17.5" cy="17.5" r="17.5" fill="#D9D9D9"/>
<path fill-rule="evenodd" clip-rule="evenodd" d="M25.5 7.625C28.2614 7.625 30.5 9.86358 30.5 12.625V21.375C30.5 24.1364 28.2614 26.375 25.5 26.375H10.5C7.73858 26.375 5.5 24.1364 5.5 21.375V12.625C5.5 9.86358 7.73858 7.625 10.5 7.625H25.5ZM25.886 13.7649C25.48 13.2066 24.6982 13.0831 24.1399 13.4892L18.3677 17.6871C18.1485 17.8465 17.8516 17.8465 17.6325 17.6871L11.8603 13.4892C11.302 13.0831 10.5202 13.2066 10.1142 13.7649C9.70812 14.3232 9.83156 15.105 10.3899 15.511L16.1621 19.709C17.2578 20.5059 18.7423 20.5059 19.8381 19.709L25.6103 15.511C26.1686 15.105 26.2921 14.3232 25.886 13.7649Z" fill="#03256C"/>
</svg>
