<svg width="39" height="40" viewBox="0 0 39 40" fill="none" xmlns="http://www.w3.org/2000/svg">
<rect width="39" height="40" rx="10" fill="#86867A"/>
<path d="M20 13L19.2929 12.2929L20 11.5858L20.7071 12.2929L20 13ZM21 22C21 22.5523 20.5523 23 20 23C19.4477 23 19 22.5523 19 22L21 22ZM14.2929 17.2929L19.2929 12.2929L20.7071 13.7071L15.7071 18.7071L14.2929 17.2929ZM20.7071 12.2929L25.7071 17.2929L24.2929 18.7071L19.2929 13.7071L20.7071 12.2929ZM21 13L21 22L19 22L19 13L21 13Z" fill="white"/>
<path d="M13 24L13 25C13 26.1046 13.8954 27 15 27L25 27C26.1046 27 27 26.1046 27 25V24" stroke="white" stroke-width="2"/>
</svg>
