<svg width="75" height="75" viewBox="0 0 75 75" fill="none" xmlns="http://www.w3.org/2000/svg">
<circle cx="37.5" cy="37.5" r="37.5" fill="#EBFF10"/>
<path fill-rule="evenodd" clip-rule="evenodd" d="M24.6578 39.7496C27.1251 39.7496 29.1324 41.6304 29.1324 43.9423C29.1324 44.9673 28.7372 45.9071 28.0829 46.6362C30.5906 47.8163 32.3158 50.2491 32.3158 53.0527C32.3158 53.6685 31.7895 54.1691 31.1355 54.1814L31.1109 54.1816H18.2048C17.5395 54.1816 17 53.6762 17 53.0527C17 50.2491 18.7252 47.8163 21.2326 46.6362C20.5784 45.9071 20.1833 44.9673 20.1833 43.9423C20.1833 41.6305 22.1905 39.7496 24.6578 39.7496ZM49.3421 39.743C51.8094 39.743 53.8166 41.6237 53.8166 43.9356C53.8166 44.9606 53.4216 45.9003 52.7673 46.6295C55.2748 47.8096 57 50.2424 57 53.046C57 53.6617 56.4738 54.1624 55.8197 54.1747L55.7952 54.1749H42.8891C42.2237 54.1749 41.6842 53.6694 41.6842 53.046C41.6842 50.2423 43.4092 47.8096 45.9169 46.6295C45.2627 45.9004 44.8675 44.9606 44.8675 43.9356C44.8675 41.6238 46.8748 39.743 49.3421 39.743ZM24.6578 48.1351C22.203 48.1351 20.1366 49.7221 19.566 51.8588L19.5491 51.9237H29.7665C29.2208 49.7544 27.1374 48.1351 24.6578 48.1351ZM49.3422 48.1284C46.8874 48.1284 44.8209 49.7154 44.2503 51.8521L44.2335 51.917H54.4509C53.9051 49.7477 51.8218 48.1284 49.3422 48.1284ZM24.6578 42.0075C23.5192 42.0075 22.593 42.8754 22.593 43.9424C22.593 45.0091 23.5191 45.8773 24.6578 45.8773C25.7965 45.8773 26.7228 45.0092 26.7228 43.9424C26.7228 42.8755 25.7965 42.0075 24.6578 42.0075ZM49.3421 42.0008C48.2035 42.0008 47.2771 42.8687 47.2771 43.9356C47.2771 45.0026 48.2035 45.8705 49.3421 45.8705C50.4808 45.8705 51.407 45.0025 51.407 43.9356C51.407 42.8687 50.4808 42.0008 49.3421 42.0008ZM37.0445 33.8384C37.7017 33.8384 38.236 34.3315 38.2491 34.9443L38.2493 34.9674V39.2111L42.1717 41.3331C42.748 41.6448 42.9454 42.3352 42.6126 42.8752C42.3894 43.2373 41.9845 43.4398 41.5681 43.4398C41.3751 43.4398 41.1795 43.3963 40.9986 43.305L40.9668 43.2884L37.0445 41.1664L33.1222 43.2884C32.9325 43.3911 32.7254 43.4398 32.5209 43.4398C32.1045 43.4398 31.6995 43.2374 31.4764 42.8752C31.148 42.3424 31.3358 41.6632 31.8945 41.3458L31.9173 41.3331L35.8397 39.2111V34.9674C35.8397 34.3439 36.3791 33.8384 37.0445 33.8384ZM37.0442 17.685C39.5114 17.685 41.5187 19.5658 41.5187 21.8778C41.5187 22.9028 41.1236 23.8425 40.4693 24.5717C42.9769 25.7518 44.7021 28.1845 44.7021 30.9881C44.7021 31.6039 44.1758 32.1045 43.5218 32.1168L43.4972 32.117H30.5911C29.9258 32.117 29.3863 31.6116 29.3863 30.9881C29.3863 28.1845 31.1113 25.7517 33.619 24.5717C32.9647 23.8425 32.5696 22.9028 32.5696 21.8778C32.5696 19.5659 34.5768 17.685 37.0442 17.685ZM37.0442 26.0705C34.5894 26.0705 32.5229 27.6575 31.9523 29.7942L31.9354 29.8592H42.1528C41.6071 27.6898 39.5237 26.0705 37.0442 26.0705ZM37.0442 19.9428C35.9056 19.9428 34.9792 20.8108 34.9792 21.8778C34.9792 22.9447 35.9056 23.8126 37.0442 23.8126C38.1828 23.8126 39.1091 22.9447 39.1091 21.8778C39.1091 20.8108 38.1828 19.9428 37.0442 19.9428Z" fill="#333333"/>
</svg>
