<svg width="30" height="30" viewBox="0 0 30 30" fill="none" xmlns="http://www.w3.org/2000/svg">
<rect width="30" height="30" rx="10" fill="#185ADB"/>
<path d="M21.8402 10.275L19.7252 8.16001C19.5858 8.01941 19.4199 7.90782 19.2371 7.83167C19.0543 7.75552 18.8582 7.71631 18.6602 7.71631C18.4622 7.71631 18.2662 7.75552 18.0834 7.83167C17.9006 7.90782 17.7347 8.01941 17.5952 8.16001L15.4352 10.32C15.3649 10.3897 15.3091 10.4727 15.2711 10.5641C15.233 10.6555 15.2134 10.7535 15.2134 10.8525C15.2134 10.9515 15.233 11.0495 15.2711 11.1409C15.3091 11.2323 15.3649 11.3153 15.4352 11.385L18.6152 14.565C18.6849 14.6353 18.7679 14.6911 18.8593 14.7292C18.9507 14.7673 19.0487 14.7869 19.1477 14.7869C19.2467 14.7869 19.3448 14.7673 19.4362 14.7292C19.5276 14.6911 19.6105 14.6353 19.6802 14.565L21.8402 12.405C21.9808 12.2656 22.0924 12.0997 22.1686 11.9169C22.2447 11.7341 22.2839 11.538 22.2839 11.34C22.2839 11.142 22.2447 10.9459 22.1686 10.7631C22.0924 10.5804 21.9808 10.4145 21.8402 10.275Z" fill="white"/>
<path d="M17.565 15.615L14.385 12.435C14.3153 12.3647 14.2323 12.3089 14.1409 12.2708C14.0496 12.2327 13.9515 12.2131 13.8525 12.2131C13.7535 12.2131 13.6555 12.2327 13.5641 12.2708C13.4727 12.3089 13.3897 12.3647 13.32 12.435L7.71751 18.0375C7.648 18.1076 7.59301 18.1907 7.55568 18.2821C7.51836 18.3734 7.49944 18.4713 7.50001 18.57V21.75C7.50001 21.9489 7.57903 22.1397 7.71968 22.2803C7.86033 22.421 8.0511 22.5 8.25001 22.5H11.43C11.535 22.5057 11.6399 22.4893 11.7381 22.4518C11.8363 22.4143 11.9255 22.3567 12 22.2825L17.6025 16.68C17.6704 16.6078 17.7233 16.5229 17.7582 16.4302C17.7931 16.3374 17.8093 16.2387 17.8058 16.1397C17.8023 16.0406 17.7792 15.9433 17.7379 15.8532C17.6966 15.7632 17.6378 15.6822 17.565 15.615Z" fill="white"/>
</svg>
