<svg width="35" height="35" viewBox="0 0 35 35" fill="none" xmlns="http://www.w3.org/2000/svg">
<path fill-rule="evenodd" clip-rule="evenodd" d="M17.5001 9.72558L29.1631 20.0922L29.1637 26.2344C29.1637 28.6042 27.2898 30.5354 24.9455 30.622L24.7813 30.625H21.8571C21.087 30.625 20.4561 30.028 20.4003 29.2707L20.3963 29.1615V25.7745C20.3963 24.2125 19.1684 22.9373 17.6252 22.8614L17.4796 22.8578C15.9128 22.8578 14.6374 24.0857 14.5616 25.6289L14.558 25.7745V29.1615C14.558 29.933 13.9621 30.5651 13.2062 30.621L13.0972 30.625H10.1731C7.8077 30.625 5.88002 28.7476 5.79362 26.399L5.79039 26.2344V20.1337L17.5001 9.72558ZM16.513 4.73903C17.032 4.28221 17.7937 4.25534 18.3412 4.65841L18.4413 4.73903L31.5887 16.4472C32.193 16.981 32.2518 17.9043 31.7201 18.5107C31.2672 19.0254 30.5334 19.1452 29.9517 18.8423L18.4689 8.63557L18.3686 8.554C17.8537 8.17165 17.1464 8.17166 16.6315 8.55403L16.5312 8.63561L5.18195 18.7244C4.58021 19.123 3.76669 19.0225 3.28092 18.4695C2.79148 17.9123 2.79924 17.0829 3.28096 16.5357L3.36563 16.4472L16.513 4.73903Z" fill="white"/>
</svg>
