<svg width="35" height="35" viewBox="0 0 35 35" fill="none" xmlns="http://www.w3.org/2000/svg">
<path fill-rule="evenodd" clip-rule="evenodd" d="M17.4999 9.72558L29.1629 20.0922L29.1635 26.2344C29.1635 28.6042 27.2895 30.5354 24.9453 30.622L24.781 30.625H21.8569C21.0868 30.625 20.4558 30.028 20.4001 29.2707L20.3961 29.1615V25.7745C20.3961 24.2125 19.1682 22.9373 17.625 22.8614L17.4794 22.8578C15.9126 22.8578 14.6372 24.0857 14.5613 25.6289L14.5578 25.7745V29.1615C14.5578 29.933 13.9618 30.5651 13.206 30.621L13.0969 30.625H10.1728C7.80745 30.625 5.87977 28.7476 5.79337 26.399L5.79015 26.2344V20.1337L17.4999 9.72558ZM16.5128 4.73903C17.0318 4.28221 17.7934 4.25534 18.341 4.65841L18.4411 4.73903L31.5884 16.4472C32.1928 16.981 32.2516 17.9043 31.7199 18.5107C31.267 19.0254 30.5332 19.1452 29.9515 18.8423L18.4687 8.63557L18.3684 8.554C17.8535 8.17165 17.1462 8.17166 16.6313 8.55403L16.531 8.63561L5.18171 18.7244C4.57996 19.123 3.76645 19.0225 3.28067 18.4695C2.79124 17.9123 2.79899 17.0829 3.28072 16.5357L3.36539 16.4472L16.5128 4.73903Z" fill="white"/>
</svg>
