<svg width="30" height="30" viewBox="0 0 30 30" fill="none" xmlns="http://www.w3.org/2000/svg">
<path fill-rule="evenodd" clip-rule="evenodd" d="M18.3237 5.82447C18.3237 3.98842 16.8353 2.5 14.9993 2.5C13.1632 2.5 11.6748 3.98842 11.6748 5.82447C11.6748 7.66052 13.1632 9.14894 14.9993 9.14894C16.8353 9.14894 18.3237 7.66052 18.3237 5.82447ZM14.9993 11.6755C13.1632 11.6755 11.6748 13.1639 11.6748 15C11.6748 16.8361 13.1632 18.3245 14.9993 18.3245C16.8353 18.3245 18.3237 16.8361 18.3237 15C18.3237 13.1639 16.8353 11.6755 14.9993 11.6755ZM14.9993 20.8511C13.1632 20.8511 11.6748 22.3395 11.6748 24.1755C11.6748 26.0116 13.1632 27.5 14.9993 27.5C16.8353 27.5 18.3237 26.0116 18.3237 24.1755C18.3237 22.3395 16.8353 20.8511 14.9993 20.8511Z" fill="white"/>
</svg>
