<svg width="29" height="29" viewBox="0 0 29 29" fill="none" xmlns="http://www.w3.org/2000/svg">
<path fill-rule="evenodd" clip-rule="evenodd" d="M12.231 15.3548L8.1088 13.9807C5.75559 13.1963 4.57898 12.8041 4.57898 12.0833C4.57898 11.3626 5.75559 10.9704 8.1088 10.186L20.372 6.09824C22.0278 5.54631 22.8557 5.27035 23.2927 5.70736C23.7297 6.14438 23.4537 6.97228 22.9018 8.62807L18.8141 20.8912L18.8141 20.8912C18.0297 23.2445 17.6375 24.4211 16.9167 24.4211C16.1959 24.4211 15.8037 23.2445 15.0193 20.8912L15.0193 20.8912L13.6453 16.769L18.8321 11.5821C19.2227 11.1916 19.2227 10.5584 18.8321 10.1679C18.4416 9.77737 17.8085 9.77737 17.4179 10.1679L12.231 15.3548Z" fill="white"/>
</svg>
