<svg width="24" height="24" viewBox="0 0 24 24" fill="none" xmlns="http://www.w3.org/2000/svg">
<path d="M12.0001 2C14.3054 1.99953 16.54 2.79557 18.3259 4.25339C20.1117 5.71121 21.339 7.74127 21.8001 10H13.8001L14.3901 9.42C14.5765 9.23352 14.7245 9.01214 14.8254 8.7685C14.9263 8.52485 14.9782 8.26372 14.9782 8C14.9782 7.73628 14.9263 7.47515 14.8254 7.2315C14.7245 6.98786 14.5765 6.76648 14.3901 6.58C14.2036 6.39352 13.9822 6.2456 13.7386 6.14468C13.4949 6.04376 13.2338 5.99182 12.9701 5.99182C12.7063 5.99182 12.4452 6.04376 12.2016 6.14468C11.9579 6.2456 11.7365 6.39352 11.5501 6.58L7.55006 10.58C7.3626 10.7659 7.21381 10.9871 7.11228 11.2308C7.01074 11.4746 6.95846 11.736 6.95846 12C6.95846 12.264 7.01074 12.5254 7.11228 12.7692C7.21381 13.0129 7.3626 13.2341 7.55006 13.42L11.5501 17.42C11.7405 17.609 11.967 17.7577 12.2161 17.8574C12.4652 17.957 12.7318 18.0055 13.0001 18C13.5305 18 14.0392 17.7893 14.4143 17.4142C14.7893 17.0391 15.0001 16.5304 15.0001 16C15.0016 15.7368 14.9511 15.4759 14.8516 15.2322C14.7521 14.9885 14.6054 14.7669 14.4201 14.58L13.8301 14H21.8301C21.4519 15.8526 20.5563 17.56 19.247 18.9242C17.9378 20.2884 16.2687 21.2534 14.4332 21.7074C12.5977 22.1614 10.6712 22.0857 8.87696 21.4892C7.08276 20.8926 5.49445 19.7996 4.29627 18.3369C3.0981 16.8742 2.33915 15.1018 2.10747 13.2253C1.87578 11.3487 2.18086 9.44498 2.9873 7.7348C3.79375 6.02462 5.06852 4.57812 6.66375 3.56308C8.25897 2.54804 10.1093 2.00606 12.0001 2Z" fill="#03256C"/>
<path d="M8.28994 12.7099L12.2899 16.7099C12.3829 16.8037 12.4935 16.8781 12.6154 16.9288C12.7372 16.9796 12.8679 17.0057 12.9999 17.0057C13.132 17.0057 13.2627 16.9796 13.3845 16.9288C13.5064 16.8781 13.617 16.8037 13.7099 16.7099C13.8037 16.617 13.8781 16.5064 13.9288 16.3845C13.9796 16.2627 14.0057 16.132 14.0057 15.9999C14.0057 15.8679 13.9796 15.7372 13.9288 15.6154C13.8781 15.4935 13.8037 15.3829 13.7099 15.2899L11.4099 12.9999H21.9999C21.9999 12.6699 22.0499 12.3399 22.0499 11.9999C22.0499 11.6599 22.0499 11.3299 21.9999 10.9999H11.4099L13.7099 8.70994C13.8032 8.6167 13.8771 8.50601 13.9276 8.38419C13.9781 8.26237 14.004 8.1318 14.004 7.99994C14.004 7.86808 13.9781 7.73751 13.9276 7.61569C13.8771 7.49387 13.8032 7.38318 13.7099 7.28994C13.6167 7.1967 13.506 7.12274 13.3842 7.07228C13.2624 7.02182 13.1318 6.99585 12.9999 6.99585C12.8681 6.99585 12.7375 7.02182 12.6157 7.07228C12.4939 7.12274 12.3832 7.1967 12.2899 7.28994L8.28994 11.2899C8.19621 11.3829 8.12182 11.4935 8.07105 11.6154C8.02028 11.7372 7.99414 11.8679 7.99414 11.9999C7.99414 12.132 8.02028 12.2627 8.07105 12.3845C8.12182 12.5064 8.19621 12.617 8.28994 12.7099Z" fill="#FFC947"/>
</svg>
