<svg width="29" height="29" viewBox="0 0 29 29" fill="none" xmlns="http://www.w3.org/2000/svg">
<path d="M14.4998 26.5833C21.1733 26.5833 26.5832 21.1734 26.5832 14.5C26.5832 7.82656 21.1733 2.41666 14.4998 2.41666C7.8264 2.41666 2.4165 7.82656 2.4165 14.5C2.4165 21.1734 7.8264 26.5833 14.4998 26.5833Z" fill="#142C52"/>
<path d="M23.4054 21.605C22.5707 19.6484 21.1139 18.0217 19.2608 16.9771C19.9578 16.085 20.3902 15.0149 20.5085 13.889C20.6269 12.763 20.4265 11.6265 19.9302 10.6089C19.4339 9.59137 18.6617 8.73372 17.7016 8.13377C16.7415 7.53382 15.6321 7.21571 14.5 7.21571C13.3678 7.21571 12.2585 7.53382 11.2983 8.13377C10.3382 8.73372 9.56602 9.59137 9.06973 10.6089C8.57344 11.6265 8.37305 12.763 8.49141 13.889C8.60976 15.0149 9.0421 16.085 9.73914 16.9771C7.88603 18.0217 6.42924 19.6484 5.59455 21.605C5.49252 21.8284 5.46099 22.0776 5.50417 22.3194C5.54734 22.5612 5.66317 22.784 5.83622 22.9583C6.95233 24.1061 8.28541 25.0207 9.758 25.6488C11.2306 26.277 12.8133 26.6063 14.4143 26.6175C16.0152 26.6288 17.6024 26.3218 19.0837 25.7143C20.565 25.1069 21.9108 24.2112 23.0429 23.0792L23.1516 22.9704C23.3292 22.7965 23.4489 22.5721 23.4943 22.3278C23.5397 22.0835 23.5086 21.8311 23.4054 21.605Z" fill="#FFC947"/>
</svg>
