<svg width="29" height="29" viewBox="0 0 29 29" fill="none" xmlns="http://www.w3.org/2000/svg">
<path d="M19.3333 4.82039C19.3333 4.50162 19.206 4.19591 18.9794 3.9705C18.7528 3.7451 18.4455 3.61847 18.125 3.61847H10.875C10.5545 3.61847 10.2472 3.7451 10.0206 3.9705C9.79397 4.19591 9.66667 4.50162 9.66667 4.82039V8.42615H19.3333V4.82039ZM25.375 24.0511V9.62807C25.375 9.3093 25.2477 9.00359 25.0211 8.77818C24.7945 8.55278 24.4871 8.42615 24.1667 8.42615H4.83333C4.51286 8.42615 4.20552 8.55278 3.97891 8.77818C3.75231 9.00359 3.625 9.3093 3.625 9.62807V24.0511C3.625 24.3699 3.75231 24.6756 3.97891 24.901C4.20552 25.1264 4.51286 25.253 4.83333 25.253H24.1667C24.4871 25.253 24.7945 25.1264 25.0211 24.901C25.2477 24.6756 25.375 24.3699 25.375 24.0511Z" stroke="#142C52" stroke-width="2" stroke-linecap="round" stroke-linejoin="round"/>
<path d="M13.2915 16.8396H10.4398C9.502 16.8315 8.58685 16.5522 7.80588 16.0357C7.02491 15.5192 6.41185 14.7879 6.04145 13.9309L3.84229 8.94297C3.95333 8.78376 4.10142 8.65361 4.27394 8.56362C4.44647 8.47363 4.63831 8.42647 4.83312 8.42615H24.1665C24.3613 8.42647 24.5531 8.47363 24.7256 8.56362C24.8981 8.65361 25.0462 8.78376 25.1573 8.94297L22.9581 13.9309C22.5877 14.7879 21.9747 15.5192 21.1937 16.0357C20.4127 16.5522 19.4976 16.8315 18.5598 16.8396H15.7081" stroke="#FFC947" stroke-width="2" stroke-linecap="round" stroke-linejoin="round"/>
<path d="M15.7082 15.6376H13.2915V18.0415H15.7082V15.6376Z" stroke="#142C52" stroke-width="2" stroke-linecap="round" stroke-linejoin="round"/>
</svg>
