<svg width="29" height="29" viewBox="0 0 29 29" fill="none" xmlns="http://www.w3.org/2000/svg">
<path d="M19.3333 4.82033C19.3333 4.50156 19.206 4.19585 18.9794 3.97044C18.7528 3.74504 18.4455 3.61841 18.125 3.61841H10.875C10.5545 3.61841 10.2472 3.74504 10.0206 3.97044C9.79397 4.19585 9.66667 4.50156 9.66667 4.82033V8.42609H19.3333V4.82033ZM25.375 24.051V9.62801C25.375 9.30924 25.2477 9.00352 25.0211 8.77812C24.7945 8.55272 24.4871 8.42609 24.1667 8.42609H4.83333C4.51286 8.42609 4.20552 8.55272 3.97891 8.77812C3.75231 9.00352 3.625 9.30924 3.625 9.62801V24.051C3.625 24.3698 3.75231 24.6755 3.97891 24.9009C4.20552 25.1263 4.51286 25.253 4.83333 25.253H24.1667C24.4871 25.253 24.7945 25.1263 25.0211 24.9009C25.2477 24.6755 25.375 24.3698 25.375 24.051Z" stroke="#142C52" stroke-width="2" stroke-linecap="round" stroke-linejoin="round"/>
<path d="M13.2915 16.8395H10.4398C9.502 16.8313 8.58685 16.552 7.80588 16.0356C7.02491 15.5191 6.41185 14.7878 6.04145 13.9308L3.84229 8.94285C3.95333 8.78364 4.10142 8.65349 4.27394 8.5635C4.44647 8.47351 4.63831 8.42634 4.83312 8.42603H24.1665C24.3613 8.42634 24.5531 8.47351 24.7256 8.5635C24.8981 8.65349 25.0462 8.78364 25.1573 8.94285L22.9581 13.9308C22.5877 14.7878 21.9747 15.5191 21.1937 16.0356C20.4127 16.552 19.4976 16.8313 18.5598 16.8395H15.7081" stroke="#FFC947" stroke-width="2" stroke-linecap="round" stroke-linejoin="round"/>
<path d="M15.7082 15.6377H13.2915V18.0415H15.7082V15.6377Z" stroke="#142C52" stroke-width="2" stroke-linecap="round" stroke-linejoin="round"/>
</svg>
